<?xml version="1.0" encoding="UTF-8" ?>
<!DOCTYPE svg PUBLIC "-//W3C//DTD SVG 1.1//EN" "http://www.w3.org/Graphics/SVG/1.1/DTD/svg11.dtd">
<svg width="1000pt" height="1134pt" viewBox="0 0 1000 1134" version="1.1" xmlns="http://www.w3.org/2000/svg">
<g id="#643773ff">
<path fill="#643773" opacity="1.00" d=" M 497.06 2.17 C 515.65 0.15 534.37 0.70 553.04 0.63 C 640.72 0.63 728.39 0.62 816.07 0.63 C 822.73 0.67 829.53 0.21 836.02 2.08 C 846.53 4.90 855.97 12.37 860.19 22.52 C 864.12 31.70 863.31 42.73 858.15 51.27 C 853.06 60.15 843.79 65.83 834.04 68.29 C 830.35 68.59 826.69 69.27 822.99 69.30 C 787.64 69.36 752.40 86.74 731.87 115.71 C 723.09 128.02 717.17 142.39 714.94 157.36 C 712.96 171.12 713.91 185.08 713.69 198.95 C 713.70 222.66 713.68 246.38 713.70 270.10 C 713.62 271.79 712.69 273.31 712.46 274.99 C 552.07 275.01 391.67 274.98 231.28 275.00 C 229.37 269.18 230.56 263.04 230.54 257.06 C 233.92 201.33 257.05 147.45 293.43 105.30 C 344.15 45.75 419.48 9.08 497.06 2.17 Z" />
</g>
<g id="#9b64aaff">
<path fill="#9b64aa" opacity="1.00" d=" M 173.95 285.03 C 177.91 279.68 183.69 275.34 190.36 274.24 C 190.77 274.42 191.59 274.78 192.00 274.96 C 205.09 275.06 218.19 274.97 231.28 275.00 C 391.67 274.98 552.07 275.01 712.46 274.99 C 731.97 275.01 751.48 275.00 770.99 274.99 C 777.87 274.47 783.53 279.48 787.61 284.46 C 798.57 299.05 797.65 321.72 784.83 334.91 C 780.36 339.35 774.29 342.27 767.94 342.32 C 756.77 342.38 745.61 342.32 734.44 342.35 C 725.67 342.33 716.89 342.34 708.12 342.34 C 694.41 342.31 680.70 342.43 667.00 342.30 C 656.69 341.12 646.31 342.01 635.98 341.88 C 617.98 341.70 599.98 342.06 581.99 341.92 C 572.64 341.66 563.30 342.95 553.97 341.94 C 469.98 341.86 385.98 341.99 301.99 341.87 C 281.24 342.79 260.45 342.17 239.68 342.34 C 230.89 342.34 222.11 342.33 213.32 342.34 C 206.56 342.29 199.80 342.45 193.05 342.27 C 184.25 341.86 176.53 335.97 172.23 328.54 C 164.52 315.32 165.00 297.54 173.95 285.03 Z" />
<path fill="#9b64aa" opacity="1.00" d=" M 368.12 790.93 C 369.11 791.77 369.42 792.81 369.04 794.06 C 367.70 793.36 367.39 792.31 368.12 790.93 Z" />
<path fill="#9b64aa" opacity="1.00" d=" M 371.10 803.85 C 371.30 804.43 371.71 805.59 371.91 806.17 C 371.71 805.59 371.30 804.43 371.10 803.85 Z" />
<path fill="#9b64aa" opacity="1.00" d=" M 372.10 807.88 C 372.29 808.46 372.68 809.63 372.88 810.21 C 372.68 809.63 372.29 808.46 372.10 807.88 Z" />
<path fill="#9b64aa" opacity="1.00" d=" M 373.01 811.94 C 374.13 812.69 374.49 813.73 374.07 815.04 C 372.79 814.35 372.43 813.32 373.01 811.94 Z" />
<path fill="#9b64aa" opacity="1.00" d=" M 460.93 937.34 C 462.53 937.67 462.60 938.21 461.15 938.95 C 461.10 938.55 460.98 937.74 460.93 937.34 Z" />
<path fill="#9b64aa" opacity="1.00" d=" M 457.07 939.73 C 457.82 938.99 458.71 938.70 459.72 938.86 C 459.47 940.53 458.58 940.82 457.07 939.73 Z" />
<path fill="#9b64aa" opacity="1.00" d=" M 452.93 940.69 C 453.43 940.53 454.44 940.21 454.94 940.06 L 454.72 940.93 L 453.69 941.26 L 452.93 940.69 Z" />
<path fill="#9b64aa" opacity="1.00" d=" M 426.98 946.85 C 427.46 946.65 428.43 946.25 428.91 946.05 L 428.75 946.93 L 427.76 947.35 L 426.98 946.85 Z" />
<path fill="#9b64aa" opacity="1.00" d=" M 418.18 949.04 C 418.63 948.02 419.46 947.64 420.68 947.90 C 420.52 949.43 419.68 949.81 418.18 949.04 Z" />
<path fill="#9b64aa" opacity="1.00" d=" M 414.06 949.69 C 414.82 948.95 415.71 948.68 416.73 948.88 C 416.41 950.53 415.52 950.80 414.06 949.69 Z" />
<path fill="#9b64aa" opacity="1.00" d=" M 409.96 950.69 C 410.45 950.51 411.43 950.15 411.92 949.97 L 411.75 950.85 L 410.74 951.23 L 409.96 950.69 Z" />
</g>
<g id="#c83c50ff">
<path fill="#c83c50" opacity="1.00" d=" M 213.32 342.34 C 222.11 342.33 230.89 342.34 239.68 342.34 C 236.03 372.92 242.32 404.60 257.64 431.34 C 272.88 458.60 297.14 480.67 325.74 493.23 C 336.36 497.97 347.56 501.35 358.98 503.53 C 355.14 493.54 352.05 483.13 351.40 472.39 C 351.20 468.91 352.38 465.35 354.79 462.80 C 359.43 457.53 368.64 457.32 373.43 462.51 C 377.55 466.55 377.03 472.76 378.22 477.98 C 381.96 495.78 391.67 511.89 403.82 525.24 C 427.04 550.05 460.02 565.46 493.97 567.23 C 502.27 567.29 510.61 567.54 518.87 566.48 C 537.26 563.88 555.34 558.02 571.17 548.18 C 584.96 539.84 597.31 529.09 607.34 516.46 C 620.67 500.13 628.79 479.96 632.51 459.34 C 634.76 451.02 646.12 447.77 652.60 453.34 C 657.86 457.07 657.93 464.10 657.02 469.85 C 669.26 459.43 680.19 447.37 688.56 433.60 C 705.11 406.54 712.19 373.82 708.12 342.34 C 716.89 342.34 725.67 342.33 734.44 342.35 C 738.75 382.18 728.35 423.47 705.20 456.23 C 690.08 477.58 670.17 495.69 647.01 507.98 C 645.38 508.93 643.46 509.70 642.49 511.42 C 628.24 536.50 607.27 557.77 582.30 572.23 C 579.40 574.02 576.08 575.20 573.58 577.59 C 559.43 591.76 545.28 605.94 531.08 620.07 C 525.14 625.12 520.46 632.10 512.82 634.76 C 501.22 639.30 486.53 637.58 477.53 628.50 C 458.68 610.68 440.83 591.82 422.23 573.74 C 418.72 570.07 413.94 568.12 409.95 565.07 C 396.58 556.00 384.98 544.52 374.78 532.03 C 362.03 530.48 349.17 529.05 336.82 525.28 C 302.31 515.34 271.18 494.27 249.11 465.94 C 229.16 440.46 216.54 409.26 213.43 377.03 C 212.48 365.50 212.19 353.88 213.32 342.34 Z" />
<path fill="#c83c50" opacity="1.00" d=" M 563.42 383.57 C 569.32 381.93 576.01 382.59 581.32 385.72 C 588.65 389.91 592.89 398.60 591.98 406.96 C 591.54 418.46 580.37 428.07 568.95 427.02 C 561.70 427.13 554.94 422.82 551.11 416.83 C 547.25 410.61 546.94 402.44 549.66 395.73 C 552.42 390.16 557.38 385.37 563.42 383.57 Z" />
<path fill="#c83c50" opacity="1.00" d=" M 402.44 384.55 C 407.39 383.29 412.90 383.25 417.64 385.35 C 424.86 388.23 430.18 395.32 431.08 403.04 C 431.98 409.79 429.67 416.96 424.73 421.71 C 419.73 426.89 412.02 429.22 404.97 427.82 C 398.38 426.68 392.65 422.14 389.44 416.36 C 386.18 409.99 385.98 401.94 389.43 395.60 C 392.10 390.41 396.93 386.40 402.44 384.55 Z" />
<path fill="#c83c50" opacity="1.00" d=" M 469.98 454.51 C 484.31 454.02 498.67 454.32 513.01 454.26 C 525.96 454.98 538.97 453.95 551.91 454.84 C 548.81 472.19 539.75 488.85 525.31 499.28 C 514.99 507.00 501.91 510.95 489.03 510.03 C 472.72 509.20 457.47 500.23 447.52 487.48 C 439.89 478.05 435.28 466.51 433.03 454.66 C 445.34 454.30 457.66 454.59 469.98 454.51 Z" />
<path fill="#c83c50" opacity="1.00" d=" M 370.03 695.11 C 384.18 687.34 401.22 685.57 416.84 689.25 L 417.45 689.41 C 417.42 692.40 417.48 695.38 417.62 698.37 C 411.45 703.41 405.64 708.94 399.13 713.52 C 390.21 714.34 381.47 717.73 374.76 723.73 C 368.20 729.52 363.68 737.52 361.87 746.06 C 360.75 753.66 361.67 761.33 363.19 768.80 C 363.93 774.63 365.88 780.23 366.87 786.02 C 367.29 787.65 367.73 789.27 368.12 790.93 C 367.39 792.31 367.70 793.36 369.04 794.06 L 368.90 794.97 C 368.49 796.28 368.88 797.30 370.08 798.01 L 369.89 798.99 C 369.43 800.32 369.83 801.33 371.08 802.01 C 371.09 802.47 371.10 803.39 371.10 803.85 C 371.30 804.43 371.71 805.59 371.91 806.17 C 371.96 806.60 372.05 807.45 372.10 807.88 C 372.29 808.46 372.68 809.63 372.88 810.21 C 372.91 810.64 372.98 811.51 373.01 811.94 C 372.43 813.32 372.79 814.35 374.07 815.04 L 373.93 815.89 C 373.50 817.18 373.85 818.22 374.99 819.01 C 375.29 820.26 375.62 821.54 375.94 822.81 C 378.83 823.69 381.67 824.77 384.28 826.31 C 388.07 821.59 393.51 818.71 399.43 817.72 C 402.41 816.86 405.54 816.88 408.62 816.91 C 413.12 817.06 417.71 816.55 422.12 817.77 C 424.89 818.81 426.82 815.93 429.13 814.94 C 435.27 812.50 441.91 811.23 448.50 812.49 C 447.76 804.87 447.17 797.22 446.00 789.64 C 445.14 777.00 443.60 764.40 442.27 751.80 C 442.01 751.58 441.48 751.14 441.22 750.92 C 440.45 748.67 440.16 746.29 439.89 743.95 C 442.23 739.98 444.62 736.04 446.97 732.08 C 448.54 730.31 449.62 727.75 451.81 726.75 C 460.72 726.08 469.83 727.25 478.62 725.32 C 479.84 725.42 479.30 724.09 479.38 723.41 C 474.97 719.04 471.19 714.09 466.98 709.52 C 476.73 702.15 488.54 696.83 500.98 697.21 C 512.42 696.81 523.52 700.87 532.98 707.08 C 525.75 712.38 517.93 716.86 510.36 721.66 C 510.40 722.52 510.44 723.39 510.49 724.27 C 513.87 724.45 516.95 725.88 520.08 727.02 C 529.93 730.17 539.63 733.78 549.51 736.85 C 552.01 737.64 552.24 740.66 553.05 742.78 C 554.66 749.72 556.78 756.52 558.85 763.34 C 560.01 766.73 560.68 770.31 560.48 773.91 C 558.40 790.96 556.31 808.00 554.03 825.02 C 553.51 829.46 552.28 833.97 553.34 838.45 C 555.77 834.58 555.39 829.68 557.69 825.80 C 560.90 821.68 564.75 817.39 570.06 816.19 C 573.07 815.51 576.07 814.05 579.23 814.62 C 587.37 815.84 595.59 816.92 603.40 819.61 C 607.20 821.22 609.48 825.68 613.90 825.87 C 618.16 826.40 622.28 827.74 626.58 828.02 C 631.43 807.73 636.36 787.45 641.02 767.12 C 644.11 756.35 643.48 744.20 637.66 734.44 C 632.56 725.20 623.66 718.56 613.70 715.34 C 612.64 713.34 609.82 711.48 610.87 708.98 C 613.37 702.84 615.54 696.57 618.28 690.54 C 618.47 690.29 618.87 689.79 619.07 689.53 C 626.37 691.86 633.61 694.65 639.95 699.04 C 651.38 706.43 659.57 717.89 664.88 730.27 C 679.89 719.31 700.62 716.81 717.67 724.30 C 734.89 731.47 747.37 748.43 749.44 766.92 C 750.35 776.11 749.69 785.98 744.86 794.09 C 739.95 809.12 735.19 824.22 730.34 839.28 C 743.94 841.69 757.47 844.53 770.74 848.36 C 774.31 849.62 777.06 852.41 779.54 855.18 C 783.14 854.95 786.42 852.98 790.04 853.01 C 799.88 854.95 809.02 859.24 818.36 862.73 C 824.86 864.84 830.09 869.90 833.36 875.81 C 837.81 874.53 842.26 872.70 846.99 872.94 C 858.97 873.04 870.56 876.63 881.92 880.09 C 888.55 882.11 894.21 886.21 899.50 890.57 C 902.95 892.99 905.22 896.59 907.96 899.71 C 913.45 899.10 918.79 900.98 924.08 902.20 C 934.36 904.93 945.25 907.49 953.48 914.66 C 958.28 918.07 962.43 922.23 965.78 927.08 C 971.49 933.37 972.67 942.06 974.82 949.96 C 977.29 960.37 973.63 970.73 970.72 980.64 C 967.83 989.25 962.40 996.69 956.69 1003.66 C 950.17 1010.83 942.94 1017.55 934.31 1022.12 C 928.31 1025.16 921.62 1026.34 915.22 1028.24 C 907.31 1030.48 899.04 1028.96 891.40 1026.49 C 881.44 1024.47 873.23 1018.18 864.52 1013.35 C 861.62 1013.83 858.65 1015.41 855.69 1014.43 C 851.99 1013.32 847.92 1012.82 844.92 1010.16 C 841.50 1007.27 838.08 1003.87 836.69 999.51 C 834.16 1000.13 831.65 1001.14 829.02 1001.15 C 825.79 1000.69 822.75 999.42 819.57 998.77 C 813.62 995.46 807.03 993.33 801.51 989.28 C 798.81 987.66 795.53 987.53 792.68 986.25 C 785.67 983.11 778.07 981.04 772.21 975.83 C 768.65 979.26 763.51 979.33 759.11 981.00 C 751.13 978.79 743.27 976.22 735.53 973.29 C 731.71 972.17 729.44 968.53 725.83 967.01 C 722.94 965.83 720.01 964.77 717.05 963.79 C 711.12 961.93 704.84 962.08 698.76 961.05 C 710.42 966.96 721.93 973.17 733.68 978.92 C 732.64 979.73 732.20 980.77 732.36 982.03 C 732.82 987.37 731.67 992.65 730.93 997.92 C 728.91 1011.34 726.83 1024.75 724.66 1038.15 C 724.10 1041.45 723.66 1044.91 721.80 1047.79 C 717.69 1054.94 709.35 1059.61 701.05 1058.44 C 687.92 1056.95 674.99 1054.09 661.86 1052.59 C 656.99 1067.00 652.51 1081.55 647.73 1095.99 C 647.41 1097.15 647.13 1098.32 646.87 1099.52 C 641.89 1091.63 635.88 1084.43 630.48 1076.84 C 630.10 1072.92 632.81 1069.58 633.81 1065.92 C 636.15 1058.64 639.65 1051.70 640.98 1044.14 C 634.78 1045.17 629.08 1047.96 623.00 1049.44 C 617.96 1050.71 613.16 1053.34 607.92 1053.50 C 601.54 1049.15 595.60 1044.16 589.36 1039.60 C 586.47 1037.61 584.19 1034.35 580.43 1034.09 C 580.47 1045.13 580.52 1056.18 580.39 1067.22 C 576.23 1070.22 571.97 1073.08 567.60 1075.76 C 569.75 1065.00 572.95 1054.47 574.71 1043.64 C 559.43 1042.88 544.14 1042.02 528.85 1042.00 C 527.24 1054.63 525.87 1067.28 524.23 1079.91 C 523.54 1086.53 522.04 1093.08 522.24 1099.78 C 534.52 1103.11 547.14 1105.10 559.76 1106.65 C 561.88 1101.72 562.72 1096.39 563.87 1091.19 C 571.00 1093.25 578.01 1095.64 585.05 1097.99 C 587.15 1108.84 591.43 1119.12 593.79 1129.89 C 596.65 1129.26 597.80 1126.36 599.44 1124.28 C 604.65 1117.35 609.90 1110.46 614.99 1103.45 C 625.09 1103.27 635.20 1103.71 645.30 1103.59 L 644.79 1105.12 C 642.06 1112.90 640.60 1121.26 636.38 1128.44 C 634.19 1132.29 629.83 1134.27 625.49 1134.00 L 373.47 1134.00 C 367.48 1131.43 364.69 1125.08 362.87 1119.25 C 358.61 1105.50 354.22 1091.78 349.78 1078.09 C 354.67 1078.76 359.17 1080.86 363.85 1082.32 C 369.67 1084.36 375.60 1086.11 381.25 1088.61 C 383.58 1098.09 386.75 1107.35 388.87 1116.89 C 390.40 1121.08 391.61 1125.37 392.54 1129.74 C 393.01 1129.66 393.93 1129.50 394.39 1129.42 C 403.01 1118.00 411.82 1106.72 420.69 1095.48 C 427.40 1095.16 434.03 1096.45 440.73 1096.41 C 440.89 1096.71 441.21 1097.32 441.37 1097.62 C 442.08 1100.21 442.59 1102.87 443.05 1105.52 C 448.75 1105.26 454.30 1103.82 459.95 1103.04 C 466.09 1102.02 472.30 1101.31 478.42 1100.16 C 481.12 1099.70 480.11 1095.97 480.51 1094.01 C 480.15 1076.65 477.32 1059.46 475.37 1042.23 C 465.78 1042.56 456.19 1042.83 446.62 1043.53 C 449.48 1036.05 452.52 1028.64 455.26 1021.12 C 486.48 1020.55 517.75 1019.88 548.99 1020.81 C 578.72 1021.84 608.42 1023.94 637.98 1027.35 C 659.73 1029.63 681.29 1033.38 702.91 1036.55 C 705.49 1019.57 708.13 1002.60 710.62 985.61 C 699.57 982.90 688.45 980.50 677.28 978.39 C 677.03 984.92 677.67 991.50 676.91 998.01 C 676.39 1003.24 669.00 1004.97 665.64 1001.32 C 663.80 999.77 664.12 997.16 663.91 995.03 C 663.48 988.57 664.13 982.08 663.35 975.65 C 656.33 974.48 649.33 973.29 642.31 972.17 C 641.64 984.47 642.38 996.80 641.70 1009.10 C 641.38 1014.52 633.72 1016.79 630.21 1012.84 C 627.38 1010.33 628.43 1006.31 628.22 1003.00 C 627.81 992.02 628.23 981.03 627.84 970.05 C 621.13 969.14 614.43 968.02 607.67 967.54 C 607.74 976.33 607.80 985.12 607.72 993.91 C 607.63 996.72 607.44 1000.18 604.69 1001.75 C 600.57 1004.69 593.67 1001.28 594.23 996.05 C 594.26 986.01 594.40 975.96 593.95 965.93 C 586.64 965.22 579.34 964.31 572.00 963.93 C 571.93 968.77 571.96 973.60 571.99 978.44 C 570.40 978.51 568.82 978.53 567.24 978.56 C 567.57 979.41 568.21 981.13 568.54 981.99 C 567.60 983.28 566.70 984.62 565.87 986.00 C 567.45 986.19 569.04 986.40 570.64 986.60 C 571.10 987.79 571.55 988.98 571.97 990.23 C 571.94 996.81 572.28 1003.42 571.64 1009.99 C 571.17 1014.08 566.11 1016.05 562.58 1014.55 C 560.06 1013.46 558.37 1010.72 558.50 1008.00 C 558.53 993.03 558.45 978.07 558.55 963.11 C 550.60 962.14 542.57 962.08 534.58 961.65 C 534.46 973.79 534.43 985.93 534.13 998.06 C 532.83 1003.55 524.40 1004.47 521.76 999.53 L 521.52 999.14 C 520.09 986.49 521.00 973.72 520.76 961.02 C 513.92 960.95 507.08 961.09 500.24 960.82 C 500.31 976.56 499.94 992.29 499.86 1008.02 C 500.40 1012.31 495.96 1015.85 491.89 1014.89 C 489.58 1014.64 488.19 1012.62 486.70 1011.11 C 487.00 994.42 486.45 977.75 486.54 961.07 C 480.52 960.83 474.51 961.23 468.51 961.39 C 468.53 973.28 468.12 985.17 468.23 997.07 C 467.88 1003.84 456.44 1004.62 455.20 997.95 C 454.24 985.99 454.97 973.95 454.76 961.96 C 447.93 962.23 441.09 962.55 434.29 963.17 C 434.14 978.78 434.50 994.40 433.83 1010.00 C 433.24 1014.39 427.46 1016.47 423.94 1014.08 C 421.81 1012.83 420.61 1010.42 420.76 1007.99 C 420.29 993.36 420.54 978.72 420.56 964.09 C 414.10 964.62 407.65 965.28 401.21 966.00 C 400.65 976.64 401.35 987.32 400.61 997.96 C 399.82 1003.00 392.45 1004.38 389.30 1000.67 C 386.69 998.12 387.63 994.24 387.49 991.01 C 387.74 983.18 387.05 975.36 387.31 967.53 C 380.40 968.28 373.54 969.42 366.64 970.19 C 365.68 983.17 366.80 996.22 365.84 1009.22 C 365.88 1014.24 358.99 1016.80 355.31 1013.76 C 352.93 1012.36 352.80 1009.40 352.77 1006.96 C 352.65 995.50 352.97 984.04 352.44 972.59 C 345.91 973.49 339.40 974.57 332.91 975.79 C 332.33 983.35 333.35 990.99 332.29 998.51 C 330.59 1004.55 320.85 1003.94 319.45 997.93 C 318.90 991.47 319.67 984.96 318.95 978.50 C 307.81 980.88 296.68 983.38 285.62 986.14 C 290.59 1003.06 296.06 1019.82 301.22 1036.68 C 326.26 1033.31 351.27 1029.66 376.42 1027.23 C 376.01 1034.60 377.20 1042.13 375.50 1049.38 C 365.77 1055.65 356.04 1061.93 346.39 1068.32 C 345.06 1063.25 343.31 1058.32 341.66 1053.36 C 328.72 1054.84 315.91 1057.28 302.94 1058.45 C 293.48 1059.62 283.57 1053.36 280.98 1044.12 C 275.27 1027.20 269.83 1010.19 264.62 993.12 C 262.95 987.88 263.90 982.37 264.65 977.08 C 279.69 971.43 294.75 965.83 309.77 960.14 C 307.64 960.14 305.53 960.39 303.44 960.75 C 299.69 959.33 295.36 959.24 292.07 956.76 C 288.10 954.13 284.87 950.36 282.75 946.12 C 278.36 929.93 273.64 913.77 270.60 897.25 C 267.74 896.63 264.79 896.19 262.11 894.98 C 260.01 893.75 258.19 892.10 256.20 890.72 C 253.18 897.76 250.34 905.03 248.82 912.57 C 256.31 921.23 264.25 929.50 271.35 938.51 C 274.23 941.88 274.23 946.55 275.82 950.52 C 274.69 953.92 274.13 957.50 272.85 960.87 C 270.57 965.01 267.06 968.52 262.92 970.82 C 255.51 973.44 247.71 974.60 240.01 976.03 C 237.79 976.48 235.54 976.23 233.33 975.97 C 230.95 979.93 227.50 983.28 223.31 985.26 C 220.31 986.26 217.20 986.85 214.19 987.83 C 209.12 986.81 204.08 985.37 198.93 984.92 C 194.19 990.83 188.57 996.28 181.75 999.72 C 176.28 1001.73 170.57 1003.09 164.89 1004.41 C 160.33 1005.65 155.60 1004.60 151.21 1003.20 C 147.64 1008.62 142.63 1013.61 136.09 1015.06 C 129.18 1016.89 122.43 1020.80 115.11 1020.01 C 113.15 1025.79 108.60 1030.35 103.38 1033.32 C 96.00 1036.35 88.41 1038.77 80.71 1040.81 C 77.55 1039.74 74.21 1039.24 71.11 1038.01 C 63.86 1034.02 59.20 1026.71 55.75 1019.42 C 48.66 1005.78 42.39 991.74 36.44 977.58 C 32.06 966.36 26.92 955.37 24.34 943.55 C 25.36 940.45 25.88 937.21 27.03 934.17 C 29.59 929.53 33.54 925.75 38.14 923.15 C 45.89 920.01 53.70 916.97 61.80 914.83 C 62.41 909.33 66.81 905.27 70.95 902.07 C 74.36 899.19 78.89 898.53 82.90 896.88 C 88.02 894.76 93.48 893.76 98.73 892.06 C 102.61 893.37 106.63 894.22 110.52 895.52 C 113.81 890.88 117.42 886.42 122.20 883.23 C 127.93 877.94 135.83 876.89 143.02 874.78 C 149.18 873.11 155.74 873.98 161.69 876.05 C 164.10 873.29 166.93 870.84 170.14 869.09 C 178.73 866.50 187.48 864.45 196.21 862.41 C 198.01 862.01 199.76 862.90 201.52 863.18 C 203.95 858.63 207.55 854.63 212.10 852.16 C 215.31 850.93 218.71 850.32 222.01 849.39 C 229.84 851.21 237.48 853.80 244.81 857.10 C 245.72 852.91 248.27 849.31 251.43 846.50 C 256.88 841.45 264.40 839.92 271.19 837.53 C 268.78 827.96 265.23 818.71 262.39 809.26 C 269.03 810.60 275.44 812.83 281.81 815.13 C 283.66 820.91 284.91 826.88 286.95 832.60 C 287.19 832.56 287.65 832.48 287.88 832.43 C 294.25 830.90 300.61 829.32 306.94 827.61 C 308.84 825.24 310.68 822.82 312.43 820.34 C 323.95 820.24 335.47 820.60 346.99 820.61 C 345.66 816.74 342.69 813.81 340.47 810.46 C 336.04 804.71 332.05 798.63 327.40 793.07 C 331.38 782.49 335.28 771.88 338.93 761.19 C 333.72 761.39 329.04 763.97 324.01 765.08 C 317.33 766.70 310.98 770.48 303.92 769.63 C 296.96 763.68 289.20 758.73 282.33 752.66 C 281.10 751.25 279.25 751.36 277.56 751.36 C 277.89 759.56 277.18 767.81 278.11 775.99 C 278.20 778.82 277.59 781.63 277.48 784.47 C 271.12 788.76 264.69 792.96 258.35 797.29 C 257.00 791.13 254.06 785.31 253.78 778.94 C 253.59 771.58 253.37 764.03 255.92 757.00 C 261.84 737.64 279.68 722.53 299.86 720.33 C 304.91 720.23 309.99 720.01 315.03 720.44 C 323.66 721.86 331.75 725.61 338.92 730.57 C 344.89 715.68 355.66 702.53 370.03 695.11 M 645.62 795.49 C 645.55 798.22 645.47 800.96 645.47 803.71 C 643.39 805.39 641.03 806.68 638.60 807.76 C 638.46 808.34 638.20 809.50 638.06 810.09 C 640.57 810.74 642.89 811.93 645.37 812.72 C 646.43 815.40 647.04 818.23 647.73 821.04 C 650.88 820.69 652.19 817.35 654.27 815.40 C 657.45 815.41 660.63 815.54 663.82 815.67 C 663.64 812.20 659.77 810.29 659.59 806.96 C 660.74 804.38 662.34 802.00 662.91 799.20 C 659.46 799.21 656.27 800.87 652.81 800.66 C 650.44 798.98 648.78 795.28 645.62 795.49 M 475.56 837.16 C 474.64 840.90 475.67 845.05 475.50 848.96 C 476.40 872.12 476.45 895.33 475.66 918.50 C 481.50 918.90 487.32 919.59 493.17 919.93 C 493.70 908.45 493.81 896.97 494.03 885.48 C 504.18 897.48 514.00 909.78 522.86 922.77 C 527.05 920.08 531.15 917.22 535.43 914.67 C 528.44 903.85 520.40 893.74 512.11 883.89 C 519.47 879.29 527.10 874.37 531.81 866.86 C 535.85 860.69 535.71 852.58 533.15 845.88 C 529.45 836.69 519.46 831.48 509.94 830.91 C 498.21 830.24 486.31 832.43 475.56 837.16 M 438.12 834.44 C 440.27 852.50 443.22 870.64 442.18 888.89 C 441.79 894.12 441.40 899.74 438.25 904.15 C 436.03 907.27 431.19 908.35 428.10 905.89 C 423.61 902.39 421.54 896.59 421.25 891.05 C 419.86 873.90 419.43 856.69 419.99 839.49 C 413.67 839.42 407.35 839.58 401.03 839.54 C 400.72 855.98 401.27 872.44 402.75 888.82 C 403.12 892.38 403.28 896.01 404.35 899.46 C 406.57 906.97 411.77 913.44 418.24 917.78 C 426.37 923.18 437.51 922.69 445.76 917.82 C 453.74 912.74 457.43 903.28 459.28 894.41 C 462.95 874.79 459.12 854.87 457.32 835.26 C 450.93 834.91 444.52 834.67 438.12 834.44 M 576.62 836.59 C 578.38 864.60 581.90 892.44 585.21 920.30 C 589.26 921.05 593.34 921.70 597.40 922.49 C 603.11 910.30 607.30 897.48 612.30 885.01 C 613.85 897.48 615.51 909.93 617.62 922.32 C 621.68 923.17 625.74 924.04 629.81 924.89 C 642.20 899.52 653.86 873.73 663.48 847.17 C 657.49 845.88 651.51 844.48 645.53 843.15 C 640.47 860.21 633.91 876.78 627.48 893.37 C 626.82 895.09 626.23 896.89 625.07 898.37 C 624.78 882.37 625.21 866.36 625.27 850.36 C 620.72 849.54 616.20 848.61 611.68 847.73 C 607.20 863.83 601.89 879.68 596.39 895.46 C 595.61 892.34 595.92 889.10 595.78 885.93 C 595.36 870.43 594.81 854.92 594.57 839.41 C 588.58 838.47 582.60 837.50 576.62 836.59 M 554.17 839.29 C 553.34 840.57 553.55 841.37 554.81 841.69 C 555.62 840.38 555.41 839.58 554.17 839.29 M 354.55 842.72 C 345.71 844.34 338.85 851.21 334.97 859.02 C 328.57 871.28 329.13 885.84 332.06 898.99 C 334.37 909.06 338.53 919.58 347.29 925.74 C 354.27 931.11 364.10 932.65 372.28 929.31 C 379.50 926.25 384.26 919.49 387.52 912.63 C 393.38 899.94 393.37 885.36 390.67 871.88 C 388.84 862.99 385.16 853.90 377.75 848.23 C 371.36 842.98 362.60 841.09 354.55 842.72 M 265.69 862.87 C 267.77 867.16 269.81 871.48 271.87 875.78 C 277.18 873.89 282.50 872.01 287.81 870.12 C 291.50 893.15 296.65 915.93 303.03 938.36 C 308.34 937.80 313.63 936.93 318.97 936.57 C 318.87 935.35 318.73 934.14 318.54 932.96 C 313.68 910.32 308.66 887.69 305.45 864.75 C 310.94 863.25 316.45 861.84 322.00 860.54 C 320.40 856.26 318.66 852.05 317.05 847.79 C 299.63 851.65 282.13 855.80 265.69 862.87 M 676.17 847.47 C 669.86 875.52 664.79 903.87 662.16 932.52 C 667.76 933.90 673.32 935.51 678.90 936.99 C 682.15 908.36 687.83 880.07 694.59 852.08 C 688.40 850.72 682.37 848.75 676.17 847.47 M 708.78 859.40 C 708.66 864.21 708.51 869.03 708.48 873.85 C 719.41 874.85 730.28 876.48 741.08 878.45 C 725.66 894.59 709.05 909.56 693.29 925.34 C 692.44 929.65 692.72 934.11 692.41 938.49 C 702.67 939.04 713.08 939.68 722.94 942.81 C 728.28 944.40 733.47 946.47 738.72 948.35 C 740.58 943.87 742.56 939.44 744.46 934.97 C 734.65 930.70 724.33 927.76 713.79 926.01 C 730.19 910.65 746.35 895.05 762.57 879.51 C 762.77 875.83 762.94 872.15 762.87 868.48 C 745.07 864.31 727.11 860.19 708.78 859.40 M 553.76 871.98 C 552.38 876.29 549.32 879.72 546.78 883.37 L 546.43 883.24 C 545.85 885.64 545.47 888.08 545.17 890.54 C 548.24 894.86 551.44 899.09 554.44 903.47 C 555.97 906.97 556.58 910.80 557.66 914.47 C 556.78 917.31 556.09 920.21 555.29 923.08 C 553.07 928.07 548.77 931.57 544.56 934.85 C 562.30 939.65 580.52 942.43 598.45 946.50 C 598.63 945.86 599.00 944.58 599.18 943.93 C 598.62 944.19 597.50 944.70 596.93 944.96 C 589.74 943.35 582.38 942.37 575.42 939.81 C 571.26 937.03 567.78 933.38 565.23 929.09 C 563.61 923.28 562.01 917.46 561.67 911.41 C 560.06 895.29 557.61 879.28 556.55 863.12 C 555.16 865.92 554.64 869.01 553.76 871.98 M 220.47 875.36 C 217.08 885.80 214.24 896.40 211.85 907.11 C 206.67 899.98 201.98 892.49 197.77 884.75 C 191.32 885.47 184.92 887.67 178.51 889.08 C 186.27 901.03 195.60 911.88 205.50 922.10 C 202.63 935.39 200.24 948.82 199.24 962.40 C 204.40 963.30 209.51 964.46 214.64 965.52 C 215.12 954.60 216.86 943.79 218.72 933.04 C 224.73 940.10 230.28 947.58 236.71 954.28 C 242.29 952.78 248.38 952.84 253.68 950.62 C 243.68 939.97 234.33 928.73 224.53 917.91 C 227.86 904.20 232.23 890.73 237.59 877.68 C 232.37 875.77 227.27 873.51 221.97 871.85 C 221.02 872.73 220.97 874.19 220.47 875.36 M 789.03 874.92 C 772.80 900.33 757.40 926.26 742.40 952.41 C 748.02 954.61 753.76 956.52 759.39 958.72 C 763.27 952.00 766.65 944.99 770.64 938.33 C 776.80 940.08 783.03 941.62 789.22 943.29 C 788.48 948.88 787.78 954.48 787.04 960.08 C 792.93 962.38 798.64 965.18 804.65 967.17 C 807.92 939.68 810.79 912.14 813.37 884.57 C 805.41 880.99 797.14 878.14 789.03 874.92 M 842.38 895.42 C 839.43 903.94 836.48 912.47 833.47 920.98 C 827.58 938.09 820.53 954.76 813.96 971.60 C 819.32 974.02 824.56 976.72 829.91 979.19 C 832.51 973.04 835.11 966.88 837.65 960.71 C 839.64 956.48 840.69 951.76 843.30 947.88 C 848.42 962.57 853.39 977.36 857.00 992.52 C 862.03 991.71 866.98 990.46 872.00 989.56 C 869.12 976.87 864.92 964.55 860.88 952.22 C 871.00 950.58 882.13 948.20 889.26 940.22 C 894.53 933.47 896.08 923.55 892.17 915.79 C 888.95 909.24 883.03 904.32 876.39 901.50 C 865.69 896.98 853.98 895.00 842.38 895.42 M 135.95 900.15 C 129.68 904.00 126.13 910.99 124.50 917.97 C 121.68 930.21 124.14 943.04 128.48 954.62 C 132.08 963.98 137.48 973.35 146.38 978.55 C 156.01 984.37 169.57 983.63 178.00 976.01 C 185.29 968.40 188.06 957.35 187.55 947.03 C 187.38 940.87 184.45 935.33 181.93 929.87 C 173.70 933.60 165.55 937.53 157.28 941.18 C 156.21 941.77 154.79 941.98 154.03 943.00 C 155.93 946.36 158.22 949.51 160.43 952.70 C 163.69 952.26 166.68 949.69 169.99 948.76 C 170.67 953.51 171.68 958.44 170.26 963.16 C 169.03 967.62 163.23 970.73 159.10 968.06 C 155.12 965.67 152.61 961.56 150.34 957.64 C 145.15 947.94 141.44 937.15 141.57 926.04 C 141.63 921.65 141.73 916.97 144.04 913.10 C 145.61 910.34 149.60 909.93 151.99 911.83 C 157.65 916.07 159.58 923.21 161.49 929.66 C 166.55 928.08 171.68 926.76 176.79 925.41 C 175.61 915.66 172.07 905.17 163.33 899.70 C 155.07 894.89 144.11 895.22 135.95 900.15 M 82.23 920.49 C 90.94 937.10 98.83 954.12 106.93 971.03 C 91.61 961.01 78.18 948.39 64.26 936.55 C 58.37 938.92 52.33 940.96 46.53 943.56 C 56.43 969.09 66.97 994.45 80.17 1018.47 C 85.13 1016.91 89.93 1014.91 94.83 1013.20 C 86.85 996.26 78.55 979.47 70.51 962.56 C 87.40 972.92 102.72 985.57 117.97 998.15 C 122.59 996.56 127.25 995.05 131.88 993.49 C 122.46 966.51 110.20 940.67 99.21 914.32 C 93.58 916.43 87.74 918.05 82.23 920.49 M 909.18 921.72 C 900.34 947.00 889.12 971.36 876.66 995.04 C 881.39 997.83 886.17 1000.57 891.00 1003.21 C 899.24 1007.62 909.28 1008.11 918.05 1005.02 C 931.80 1000.62 942.34 989.29 948.60 976.60 C 953.34 967.17 954.79 955.86 951.29 945.80 C 948.69 938.38 942.68 932.61 935.77 929.14 C 927.49 925.00 918.36 922.69 909.18 921.72 M 402.33 933.15 C 404.08 939.13 405.28 945.26 406.78 951.31 C 407.58 951.16 409.17 950.85 409.96 950.69 L 410.74 951.23 L 411.75 950.85 L 411.92 949.97 C 412.46 949.90 413.52 949.76 414.06 949.69 C 415.52 950.80 416.41 950.53 416.73 948.88 L 418.18 949.04 C 419.68 949.81 420.52 949.43 420.68 947.90 L 422.11 947.86 C 423.65 948.82 424.50 948.48 424.64 946.85 C 425.23 946.85 426.40 946.85 426.98 946.85 L 427.76 947.35 L 428.75 946.93 L 428.91 946.05 C 436.98 944.64 444.91 942.39 452.93 940.69 L 453.69 941.26 L 454.72 940.93 L 454.94 940.06 C 455.47 939.97 456.54 939.81 457.07 939.73 C 458.58 940.82 459.47 940.53 459.72 938.86 L 461.15 938.95 C 462.60 938.21 462.53 937.67 460.93 937.34 C 460.96 936.44 461.03 934.64 461.06 933.74 C 457.54 936.09 454.24 939.01 450.01 940.01 C 445.07 941.31 440.18 942.92 435.15 943.85 C 428.31 944.98 421.84 942.14 415.33 940.58 C 410.37 939.36 406.29 936.20 402.33 933.15 M 503.48 1048.26 C 503.43 1050.70 503.59 1053.18 503.30 1055.64 C 501.78 1058.95 496.43 1058.39 495.89 1062.23 C 498.73 1063.50 502.12 1063.90 504.32 1066.31 C 504.67 1068.79 505.16 1071.27 505.53 1073.77 C 506.04 1073.69 507.06 1073.54 507.58 1073.46 C 509.29 1071.48 510.62 1069.05 512.85 1067.61 C 515.77 1067.29 518.63 1068.16 521.50 1068.57 C 522.55 1064.73 517.28 1062.93 518.32 1059.05 C 518.05 1056.26 521.08 1054.25 520.47 1051.52 C 517.26 1051.83 514.14 1053.02 510.83 1052.75 C 508.50 1051.08 506.66 1048.15 503.48 1048.26 Z" />
<path fill="#c83c50" opacity="1.00" d=" M 494.29 847.07 C 500.39 845.22 507.50 843.52 513.47 846.69 C 518.57 849.36 519.71 856.70 516.17 861.10 C 510.71 868.39 502.59 873.17 494.42 876.87 C 494.36 866.94 494.44 857.00 494.29 847.07 Z" />
<path fill="#c83c50" opacity="1.00" d=" M 356.21 857.38 C 362.75 854.62 368.21 861.25 370.37 866.69 C 374.32 877.21 375.57 888.78 374.36 899.94 C 373.53 905.14 372.36 910.74 368.68 914.73 C 365.97 917.56 361.22 916.95 358.51 914.45 C 353.37 910.08 351.32 903.31 349.83 896.99 C 347.73 887.19 346.57 876.78 349.50 867.03 C 350.69 863.29 352.47 859.18 356.21 857.38 Z" />
<path fill="#c83c50" opacity="1.00" d=" M 776.85 926.70 C 782.97 915.76 788.97 904.73 795.50 894.03 C 793.87 906.13 792.55 918.28 791.02 930.40 C 786.27 929.25 781.59 927.86 776.85 926.70 Z" />
<path fill="#c83c50" opacity="1.00" d=" M 857.08 911.46 C 863.41 912.06 870.57 913.01 875.16 917.90 C 879.12 921.98 877.93 929.31 873.20 932.29 C 865.33 937.41 855.68 938.85 846.48 939.41 C 850.02 930.09 853.56 920.78 857.08 911.46 Z" />
<path fill="#c83c50" opacity="1.00" d=" M 922.45 940.06 C 926.73 940.70 931.44 942.43 933.37 946.66 C 936.84 954.07 935.06 962.74 931.88 969.94 C 928.14 978.84 920.96 986.07 912.35 990.33 C 908.38 992.37 902.73 993.84 899.28 990.10 C 908.01 973.90 915.39 957.03 922.45 940.06 Z" />
<path fill="#c83c50" opacity="1.00" d=" M 435.91 1022.42 C 440.64 1022.10 445.45 1022.45 450.08 1021.25 C 447.19 1022.51 444.10 1023.19 441.04 1023.92 C 432.63 1026.28 424.35 1029.07 415.95 1031.41 C 410.25 1033.27 406.83 1027.38 402.55 1024.85 C 413.65 1023.86 424.78 1023.10 435.91 1022.42 Z" />
</g>
<g id="#ffe69dff">
<path fill="#ffe69d" opacity="1.00" d=" M 239.68 342.34 C 260.45 342.17 281.24 342.79 301.99 341.87 C 385.98 341.99 469.98 341.86 553.97 341.94 C 563.30 342.95 572.64 341.66 581.99 341.92 C 599.98 342.06 617.98 341.70 635.98 341.88 C 646.31 342.01 656.69 341.12 667.00 342.30 C 680.70 342.43 694.41 342.31 708.12 342.34 C 712.19 373.82 705.11 406.54 688.56 433.60 C 680.19 447.37 669.26 459.43 657.02 469.85 C 657.93 464.10 657.86 457.07 652.60 453.34 C 646.12 447.77 634.76 451.02 632.51 459.34 C 628.79 479.96 620.67 500.13 607.34 516.46 C 597.31 529.09 584.96 539.84 571.17 548.18 C 555.34 558.02 537.26 563.88 518.87 566.48 C 510.61 567.54 502.27 567.29 493.97 567.23 C 460.02 565.46 427.04 550.05 403.82 525.24 C 391.67 511.89 381.96 495.78 378.22 477.98 C 377.03 472.76 377.55 466.55 373.43 462.51 C 368.64 457.32 359.43 457.53 354.79 462.80 C 352.38 465.35 351.20 468.91 351.40 472.39 C 352.05 483.13 355.14 493.54 358.98 503.53 C 347.56 501.35 336.36 497.97 325.74 493.23 C 297.14 480.67 272.88 458.60 257.64 431.34 C 242.32 404.60 236.03 372.92 239.68 342.34 M 563.42 383.57 C 557.38 385.37 552.42 390.16 549.66 395.73 C 546.94 402.44 547.25 410.61 551.11 416.83 C 554.94 422.82 561.70 427.13 568.95 427.02 C 580.37 428.07 591.54 418.46 591.98 406.96 C 592.89 398.60 588.65 389.91 581.32 385.72 C 576.01 382.59 569.32 381.93 563.42 383.57 M 402.44 384.55 C 396.93 386.40 392.10 390.41 389.43 395.60 C 385.98 401.94 386.18 409.99 389.44 416.36 C 392.65 422.14 398.38 426.68 404.97 427.82 C 412.02 429.22 419.73 426.89 424.73 421.71 C 429.67 416.96 431.98 409.79 431.08 403.04 C 430.18 395.32 424.86 388.23 417.64 385.35 C 412.90 383.25 407.39 383.29 402.44 384.55 M 469.98 454.51 C 457.66 454.59 445.34 454.30 433.03 454.66 C 435.28 466.51 439.89 478.05 447.52 487.48 C 457.47 500.23 472.72 509.20 489.03 510.03 C 501.91 510.95 514.99 507.00 525.31 499.28 C 539.75 488.85 548.81 472.19 551.91 454.84 C 538.97 453.95 525.96 454.98 513.01 454.26 C 498.67 454.32 484.31 454.02 469.98 454.51 Z" />
<path fill="#ffe69d" opacity="1.00" d=" M 447.37 614.00 C 450.78 614.79 452.64 618.25 455.90 619.45 C 458.31 618.09 460.97 617.21 463.78 617.33 C 462.87 619.65 461.58 621.80 460.59 624.09 C 459.58 627.53 464.19 629.30 463.94 632.73 C 461.09 632.57 458.25 632.47 455.40 632.47 C 453.12 634.26 452.09 638.12 448.74 637.90 C 448.59 636.07 448.46 634.27 448.36 632.46 C 446.56 629.83 443.67 628.47 440.57 628.09 C 440.44 627.52 440.19 626.39 440.06 625.83 C 442.32 624.86 444.44 623.61 446.52 622.30 C 446.67 619.52 447.12 616.77 447.37 614.00 Z" />
<path fill="#ffe69d" opacity="1.00" d=" M 355.33 628.35 C 357.74 628.93 360.21 628.84 362.37 627.52 C 362.03 630.13 362.95 632.47 364.96 634.16 C 363.78 634.64 362.60 635.12 361.43 635.62 C 360.96 636.68 360.49 637.76 360.03 638.84 C 359.41 638.37 358.17 637.44 357.54 636.97 C 357.50 636.65 357.40 636.00 357.36 635.67 C 356.55 635.61 354.93 635.49 354.12 635.42 C 354.59 634.25 355.06 633.09 355.55 631.94 C 355.49 631.04 355.38 629.25 355.33 628.35 Z" />
<path fill="#ffe69d" opacity="1.00" d=" M 547.47 656.19 C 549.23 654.83 550.80 656.94 552.27 657.80 C 556.20 661.21 560.81 663.81 564.41 667.62 C 569.83 672.87 576.27 676.94 582.00 681.84 C 586.52 681.82 590.62 679.76 594.94 678.72 C 605.02 675.98 614.91 672.51 625.07 670.07 C 623.47 677.11 619.50 683.42 618.28 690.54 C 615.54 696.57 613.37 702.84 610.87 708.98 C 609.82 711.48 612.64 713.34 613.70 715.34 C 619.94 724.07 625.88 733.01 632.48 741.49 C 634.10 743.17 635.41 745.15 635.86 747.50 C 629.54 747.52 623.33 745.97 617.00 746.36 C 608.31 746.07 599.64 745.17 590.93 745.42 C 581.98 756.65 573.40 768.16 564.69 779.57 C 564.28 779.50 563.45 779.34 563.04 779.26 C 562.51 777.32 561.84 775.42 560.48 773.91 C 560.68 770.31 560.01 766.73 558.85 763.34 C 556.78 756.52 554.66 749.72 553.05 742.78 C 552.24 740.66 552.01 737.64 549.51 736.85 C 539.63 733.78 529.93 730.17 520.08 727.02 C 516.95 725.88 513.87 724.45 510.49 724.27 C 510.44 723.39 510.40 722.52 510.36 721.66 C 517.93 716.86 525.75 712.38 532.98 707.08 C 537.60 704.46 542.28 701.68 546.35 698.30 C 546.70 690.28 546.36 682.25 546.65 674.23 C 547.36 668.23 547.33 662.21 547.47 656.19 Z" />
<path fill="#ffe69d" opacity="1.00" d=" M 415.50 669.12 C 419.41 669.81 422.04 673.13 425.58 674.70 L 425.57 675.68 C 425.93 675.61 426.66 675.48 427.03 675.41 C 429.81 678.05 433.53 679.39 436.44 681.89 C 438.69 683.96 442.61 684.56 445.03 682.51 C 445.37 682.54 446.05 682.61 446.39 682.65 L 446.50 681.46 C 447.24 681.47 448.72 681.49 449.46 681.50 L 449.41 680.41 L 450.18 680.43 C 451.41 679.52 452.98 679.49 454.43 679.27 L 454.34 678.28 L 455.58 678.65 L 455.56 677.51 C 456.30 677.52 457.78 677.55 458.52 677.56 L 458.50 676.67 L 458.93 676.56 C 461.76 676.22 464.35 675.00 466.85 673.71 C 466.60 677.46 465.62 681.09 464.61 684.70 L 464.63 684.72 C 463.22 689.79 462.03 694.92 460.58 699.98 C 459.43 702.59 462.20 704.17 463.74 705.72 C 464.92 706.89 465.97 708.18 466.85 709.60 L 466.98 709.52 C 471.19 714.09 474.97 719.04 479.38 723.41 C 474.72 724.98 469.76 724.20 464.98 724.96 C 459.92 725.77 454.66 725.22 449.73 726.74 C 448.16 728.09 447.78 730.26 446.97 732.08 C 444.62 736.04 442.23 739.98 439.89 743.95 C 438.42 746.49 436.77 748.93 434.91 751.22 C 432.64 747.36 431.51 743.00 429.90 738.87 C 428.16 734.09 425.49 729.69 424.15 724.76 C 420.30 722.99 416.09 722.31 412.00 721.34 C 406.77 720.20 401.68 718.24 396.26 718.24 C 396.77 716.42 397.81 714.84 399.13 713.52 C 405.64 708.94 411.45 703.41 417.62 698.37 C 417.48 695.38 417.42 692.40 417.45 689.41 L 416.84 689.25 C 416.60 684.97 416.46 680.69 416.45 676.41 L 415.57 676.58 C 415.58 674.09 415.53 671.60 415.50 669.12 Z" />
<path fill="#ffe69d" opacity="1.00" d=" M 319.49 684.16 C 323.02 684.48 324.51 688.63 327.93 689.54 C 330.29 688.18 332.97 687.61 335.67 687.45 C 335.25 690.66 332.32 693.00 332.62 696.36 C 334.12 698.27 335.64 700.19 336.81 702.34 C 334.21 704.17 330.79 701.86 327.78 702.57 C 325.75 704.47 324.54 707.69 321.48 708.08 C 320.67 705.77 320.33 703.34 319.46 701.07 C 317.93 697.86 311.83 700.05 312.23 695.74 C 314.40 695.36 316.08 693.87 318.07 693.04 C 320.17 690.55 319.28 687.11 319.49 684.16 Z" />
<path fill="#ffe69d" opacity="1.00" d=" M 277.56 751.36 C 279.25 751.36 281.10 751.25 282.33 752.66 C 289.20 758.73 296.96 763.68 303.92 769.63 C 310.98 770.48 317.33 766.70 324.01 765.08 C 329.04 763.97 333.72 761.39 338.93 761.19 C 335.28 771.88 331.38 782.49 327.40 793.07 C 332.05 798.63 336.04 804.71 340.47 810.46 C 342.69 813.81 345.66 816.74 346.99 820.61 C 335.47 820.60 323.95 820.24 312.43 820.34 C 310.68 822.82 308.84 825.24 306.94 827.61 C 300.61 829.32 294.25 830.90 287.88 832.43 C 286.13 826.39 284.63 820.26 282.55 814.32 C 278.06 812.22 273.19 811.15 268.54 809.49 C 266.12 808.73 263.73 807.66 261.16 807.62 C 260.71 807.60 259.80 807.56 259.35 807.54 L 259.49 806.61 C 258.59 806.56 256.77 806.45 255.86 806.39 C 254.61 805.78 253.36 805.20 252.11 804.61 C 251.62 804.61 250.62 804.61 250.13 804.61 C 250.28 803.72 250.43 802.84 250.59 801.97 C 253.42 800.83 255.80 798.90 258.35 797.29 C 264.69 792.96 271.12 788.76 277.48 784.47 C 277.59 781.63 278.20 778.82 278.11 775.99 C 277.18 767.81 277.89 759.56 277.56 751.36 Z" />
<path fill="#ffe69d" opacity="1.00" d=" M 645.62 795.49 C 648.78 795.28 650.44 798.98 652.81 800.66 C 656.27 800.87 659.46 799.21 662.91 799.20 C 662.34 802.00 660.74 804.38 659.59 806.96 C 659.77 810.29 663.64 812.20 663.82 815.67 C 660.63 815.54 657.45 815.41 654.27 815.40 C 652.19 817.35 650.88 820.69 647.73 821.04 C 647.04 818.23 646.43 815.40 645.37 812.72 C 642.89 811.93 640.57 810.74 638.06 810.09 C 638.20 809.50 638.46 808.34 638.60 807.76 C 641.03 806.68 643.39 805.39 645.47 803.71 C 645.47 800.96 645.55 798.22 645.62 795.49 Z" />
<path fill="#ffe69d" opacity="1.00" d=" M 399.61 809.03 C 403.48 810.46 405.84 814.06 408.62 816.91 C 405.54 816.88 402.41 816.86 399.43 817.72 C 399.47 814.81 399.51 811.92 399.61 809.03 Z" />
<path fill="#ffe69d" opacity="1.00" d=" M 553.76 871.98 C 554.64 869.01 555.16 865.92 556.55 863.12 C 557.61 879.28 560.06 895.29 561.67 911.41 C 558.59 903.65 558.05 895.18 555.64 887.23 C 553.18 885.20 549.69 884.68 546.78 883.37 C 549.32 879.72 552.38 876.29 553.76 871.98 Z" />
<path fill="#ffe69d" opacity="1.00" d=" M 571.99 978.44 C 573.37 978.15 574.76 977.84 576.13 977.50 C 575.99 980.29 577.06 982.87 578.68 985.10 C 575.88 985.99 573.87 988.11 571.97 990.23 C 571.55 988.98 571.10 987.79 570.64 986.60 C 569.04 986.40 567.45 986.19 565.87 986.00 C 566.70 984.62 567.60 983.28 568.54 981.99 C 568.21 981.13 567.57 979.41 567.24 978.56 C 568.82 978.53 570.40 978.51 571.99 978.44 Z" />
<path fill="#ffe69d" opacity="1.00" d=" M 653.37 978.39 C 656.10 978.78 658.83 978.35 661.35 977.25 C 661.03 980.20 662.69 982.81 662.78 985.71 C 661.78 986.07 660.79 986.45 659.81 986.84 C 659.68 987.54 659.42 988.93 659.29 989.63 C 658.82 989.57 657.87 989.45 657.40 989.39 C 656.58 988.51 655.75 987.63 654.92 986.79 C 653.76 986.41 652.15 986.64 651.69 985.22 C 652.24 984.15 652.84 983.11 653.49 982.11 C 653.45 980.86 653.41 979.62 653.37 978.39 Z" />
<path fill="#ffe69d" opacity="1.00" d=" M 511.48 992.40 C 513.79 992.40 516.10 992.39 518.42 992.36 C 519.15 994.74 520.13 997.06 521.52 999.14 L 521.76 999.53 C 520.41 999.83 519.08 1000.16 517.75 1000.50 C 517.28 1001.61 516.81 1002.74 516.35 1003.88 C 514.43 1001.82 511.39 1001.13 509.52 999.23 C 510.53 997.06 511.41 994.82 511.48 992.40 Z" />
<path fill="#ffe69d" opacity="1.00" d=" M 376.54 1005.08 C 378.02 1005.69 379.54 1006.30 380.79 1007.35 C 387.89 1013.37 395.48 1018.78 402.55 1024.85 C 406.83 1027.38 410.25 1033.27 415.95 1031.41 C 424.35 1029.07 432.63 1026.28 441.04 1023.92 C 444.10 1023.19 447.19 1022.51 450.08 1021.25 C 451.76 1020.64 453.54 1020.55 455.26 1021.12 C 452.52 1028.64 449.48 1036.05 446.62 1043.53 C 444.86 1049.48 442.33 1055.17 440.33 1061.05 C 443.50 1066.27 447.39 1070.99 450.73 1076.09 C 454.94 1083.50 461.32 1089.54 464.83 1097.35 C 458.91 1097.64 452.98 1097.33 447.11 1096.60 C 445.17 1096.54 442.81 1095.93 441.37 1097.62 C 441.21 1097.32 440.89 1096.71 440.73 1096.41 C 434.03 1096.45 427.40 1095.16 420.69 1095.48 C 411.82 1106.72 403.01 1118.00 394.39 1129.42 C 393.93 1129.50 393.01 1129.66 392.54 1129.74 C 391.61 1125.37 390.40 1121.08 388.87 1116.89 C 386.75 1107.35 383.58 1098.09 381.25 1088.61 C 375.60 1086.11 369.67 1084.36 363.85 1082.32 C 359.17 1080.86 354.67 1078.76 349.78 1078.09 C 349.66 1078.02 349.42 1077.88 349.31 1077.81 C 348.40 1077.26 347.49 1076.73 346.58 1076.22 C 345.68 1073.82 344.47 1071.45 344.47 1068.86 L 346.39 1068.32 C 356.04 1061.93 365.77 1055.65 375.50 1049.38 C 377.20 1042.13 376.01 1034.60 376.42 1027.23 C 376.51 1019.84 376.45 1012.46 376.54 1005.08 Z" />
<path fill="#ffe69d" opacity="1.00" d=" M 580.43 1034.09 C 584.19 1034.35 586.47 1037.61 589.36 1039.60 C 595.60 1044.16 601.54 1049.15 607.92 1053.50 C 613.16 1053.34 617.96 1050.71 623.00 1049.44 C 629.08 1047.96 634.78 1045.17 640.98 1044.14 C 639.65 1051.70 636.15 1058.64 633.81 1065.92 C 632.81 1069.58 630.10 1072.92 630.48 1076.84 C 635.88 1084.43 641.89 1091.63 646.87 1099.52 C 647.61 1100.80 648.33 1102.10 649.03 1103.42 C 647.78 1103.46 646.54 1103.52 645.30 1103.59 C 635.20 1103.71 625.09 1103.27 614.99 1103.45 C 609.90 1110.46 604.65 1117.35 599.44 1124.28 C 597.80 1126.36 596.65 1129.26 593.79 1129.89 C 591.43 1119.12 587.15 1108.84 585.05 1097.99 C 578.01 1095.64 571.00 1093.25 563.87 1091.19 C 560.00 1089.98 556.17 1088.65 552.31 1087.42 C 552.36 1086.97 552.47 1086.08 552.52 1085.64 C 557.59 1082.41 562.56 1079.04 567.60 1075.76 C 571.97 1073.08 576.23 1070.22 580.39 1067.22 C 580.52 1056.18 580.47 1045.13 580.43 1034.09 Z" />
<path fill="#ffe69d" opacity="1.00" d=" M 503.48 1048.26 C 506.66 1048.15 508.50 1051.08 510.83 1052.75 C 514.14 1053.02 517.26 1051.83 520.47 1051.52 C 521.08 1054.25 518.05 1056.26 518.32 1059.05 C 517.28 1062.93 522.55 1064.73 521.50 1068.57 C 518.63 1068.16 515.77 1067.29 512.85 1067.61 C 510.62 1069.05 509.29 1071.48 507.58 1073.46 C 507.06 1073.54 506.04 1073.69 505.53 1073.77 C 505.16 1071.27 504.67 1068.79 504.32 1066.31 C 502.12 1063.90 498.73 1063.50 495.89 1062.23 C 496.43 1058.39 501.78 1058.95 503.30 1055.64 C 503.59 1053.18 503.43 1050.70 503.48 1048.26 Z" />
</g>
<g id="#f3919fff">
<path fill="#f3919f" opacity="1.00" d=" M 631.43 555.58 C 638.88 552.57 648.73 557.65 649.24 566.01 C 649.37 572.80 645.96 578.99 643.28 585.04 C 631.69 607.77 616.59 629.63 595.26 644.22 C 589.50 647.69 583.07 651.97 576.02 650.61 C 567.96 648.71 564.27 638.25 568.23 631.30 C 569.57 628.98 571.86 627.48 574.15 626.22 C 583.26 621.02 591.99 614.81 598.55 606.53 C 607.65 594.91 616.47 582.78 621.82 568.92 C 623.90 563.88 625.74 557.60 631.43 555.58 Z" />
<path fill="#f3919f" opacity="1.00" d=" M 355.33 557.45 C 360.33 555.75 366.59 556.81 369.81 561.29 C 372.59 565.47 373.95 570.39 376.07 574.91 C 381.22 586.73 388.96 597.13 396.74 607.32 C 403.70 616.49 413.27 623.21 423.21 628.80 C 426.99 630.71 429.59 634.70 429.54 638.98 C 430.14 645.98 424.30 653.44 416.90 652.79 C 409.59 652.10 403.27 647.75 397.40 643.66 C 377.70 628.85 363.47 608.00 352.58 586.15 C 350.28 580.95 347.54 575.74 346.99 570.02 C 346.38 564.50 350.08 559.10 355.33 557.45 Z" />
<path fill="#f3919f" opacity="1.00" d=" M 437.31 646.50 C 443.35 643.58 449.46 647.17 454.44 650.47 C 460.51 653.67 462.08 662.06 459.08 667.90 C 457.35 671.73 453.24 674.28 449.05 674.28 C 443.06 674.81 437.90 671.07 433.42 667.60 C 426.86 661.68 429.09 649.71 437.31 646.50 Z" />
<path fill="#f3919f" opacity="1.00" d=" M 549.07 647.11 C 553.77 644.37 560.21 644.99 564.17 648.77 C 569.13 653.08 569.66 661.09 565.72 666.25 C 565.39 666.59 564.74 667.28 564.41 667.62 C 560.81 663.81 556.20 661.21 552.27 657.80 C 550.80 656.94 549.23 654.83 547.47 656.19 C 547.33 662.21 547.36 668.23 546.65 674.23 C 539.33 672.29 535.54 663.83 538.05 656.90 C 539.60 651.81 544.84 649.56 549.07 647.11 Z" />
<path fill="#f3919f" opacity="1.00" d=" M 479.38 723.41 C 479.30 724.09 479.84 725.42 478.62 725.32 C 469.83 727.25 460.72 726.08 451.81 726.75 C 449.62 727.75 448.54 730.31 446.97 732.08 C 447.78 730.26 448.16 728.09 449.73 726.74 C 454.66 725.22 459.92 725.77 464.98 724.96 C 469.76 724.20 474.72 724.98 479.38 723.41 Z" />
<path fill="#f3919f" opacity="1.00" d=" M 368.90 794.97 C 370.17 795.61 370.56 796.62 370.08 798.01 C 368.88 797.30 368.49 796.28 368.90 794.97 Z" />
<path fill="#f3919f" opacity="1.00" d=" M 369.89 798.99 C 371.11 799.62 371.51 800.63 371.08 802.01 C 369.83 801.33 369.43 800.32 369.89 798.99 Z" />
<path fill="#f3919f" opacity="1.00" d=" M 261.16 807.62 C 263.73 807.66 266.12 808.73 268.54 809.49 C 273.19 811.15 278.06 812.22 282.55 814.32 C 284.63 820.26 286.13 826.39 287.88 832.43 C 287.65 832.48 287.19 832.56 286.95 832.60 C 284.91 826.88 283.66 820.91 281.81 815.13 C 275.44 812.83 269.03 810.60 262.39 809.26 C 262.30 809.03 262.13 808.56 262.04 808.33 C 260.95 808.39 259.87 808.47 258.79 808.56 C 259.38 808.33 260.57 807.86 261.16 807.62 Z" />
<path fill="#f3919f" opacity="1.00" d=" M 373.93 815.89 C 375.19 816.57 375.54 817.61 374.99 819.01 C 373.85 818.22 373.50 817.18 373.93 815.89 Z" />
<path fill="#f3919f" opacity="1.00" d=" M 554.17 839.29 C 555.41 839.58 555.62 840.38 554.81 841.69 C 553.55 841.37 553.34 840.57 554.17 839.29 Z" />
<path fill="#f3919f" opacity="1.00" d=" M 422.11 947.86 C 422.76 947.00 423.60 946.66 424.64 946.85 C 424.50 948.48 423.65 948.82 422.11 947.86 Z" />
</g>
<g id="#943d4d39">
<path fill="#943d4d" opacity="0.22" d=" M 446.43 612.39 C 446.97 612.43 448.05 612.51 448.59 612.55 C 450.71 614.22 452.67 616.13 454.98 617.55 C 458.16 617.13 461.24 615.83 464.53 616.39 C 464.86 619.66 462.52 622.23 461.45 625.14 C 462.96 628.27 466.00 630.85 465.72 634.62 C 462.44 634.45 459.26 633.56 455.99 633.48 C 453.64 635.74 452.08 639.63 448.48 639.96 C 447.91 637.21 447.17 634.49 446.36 631.81 C 444.07 630.24 441.49 629.18 438.69 629.14 C 438.53 627.90 438.25 626.65 438.52 625.43 C 441.01 623.58 444.85 623.16 446.30 620.16 C 446.13 617.56 445.94 614.96 446.43 612.39 M 447.37 614.00 C 447.12 616.77 446.67 619.52 446.52 622.30 C 444.44 623.61 442.32 624.86 440.06 625.83 C 440.19 626.39 440.44 627.52 440.57 628.09 C 443.67 628.47 446.56 629.83 448.36 632.46 C 448.46 634.27 448.59 636.07 448.74 637.90 C 452.09 638.12 453.12 634.26 455.40 632.47 C 458.25 632.47 461.09 632.57 463.94 632.73 C 464.19 629.30 459.58 627.53 460.59 624.09 C 461.58 621.80 462.87 619.65 463.78 617.33 C 460.97 617.21 458.31 618.09 455.90 619.45 C 452.64 618.25 450.78 614.79 447.37 614.00 Z" />
<path fill="#943d4d" opacity="0.22" d=" M 354.43 626.34 C 356.04 626.74 357.59 627.31 359.13 627.95 C 359.59 627.58 360.51 626.83 360.98 626.45 C 361.63 626.45 362.93 626.46 363.59 626.46 C 363.60 627.96 363.61 629.47 363.65 630.99 C 364.87 631.87 366.39 632.62 366.81 634.24 C 364.39 635.67 361.28 636.74 360.59 639.85 C 358.65 640.16 357.46 638.92 357.54 636.97 C 358.17 637.44 359.41 638.37 360.03 638.84 C 360.49 637.76 360.96 636.68 361.43 635.62 C 362.60 635.12 363.78 634.64 364.96 634.16 C 362.95 632.47 362.03 630.13 362.37 627.52 C 360.21 628.84 357.74 628.93 355.33 628.35 C 355.38 629.25 355.49 631.04 355.55 631.94 C 355.06 633.09 354.59 634.25 354.12 635.42 C 354.93 635.49 356.55 635.61 357.36 635.67 C 356.86 638.05 353.93 636.24 352.31 636.45 C 353.57 633.17 354.97 629.95 354.43 626.34 Z" />
<path fill="#943d4d" opacity="0.22" d=" M 564.41 667.62 C 564.74 667.28 565.39 666.59 565.72 666.25 L 565.28 667.28 C 571.18 671.82 576.87 676.67 583.01 680.89 C 585.07 680.54 586.86 679.30 588.93 678.90 C 601.62 676.05 613.83 671.36 626.50 668.43 C 626.65 672.08 624.57 675.19 623.48 678.54 C 622.07 682.22 621.13 686.14 619.07 689.53 C 618.87 689.79 618.47 690.29 618.28 690.54 C 619.50 683.42 623.47 677.11 625.07 670.07 C 614.91 672.51 605.02 675.98 594.94 678.72 C 590.62 679.76 586.52 681.82 582.00 681.84 C 576.27 676.94 569.83 672.87 564.41 667.62 Z" />
<path fill="#943d4d" opacity="0.22" d=" M 458.93 676.56 C 461.66 674.39 464.95 673.06 468.38 672.46 C 468.63 676.65 466.75 680.53 466.18 684.63 C 465.79 684.65 465.01 684.68 464.61 684.70 C 465.62 681.09 466.60 677.46 466.85 673.71 C 464.35 675.00 461.76 676.22 458.93 676.56 Z" />
<path fill="#943d4d" opacity="0.22" d=" M 318.63 682.54 C 319.48 682.60 320.32 682.68 321.17 682.78 C 322.95 684.54 324.72 686.36 326.90 687.63 C 330.44 687.25 333.97 686.63 337.39 685.63 C 337.11 689.09 334.95 691.94 333.59 695.03 C 335.15 698.16 338.45 700.66 337.66 704.54 C 334.71 704.60 331.83 704.03 328.96 703.54 C 326.30 704.81 325.25 707.87 323.08 709.73 C 318.68 710.79 319.58 704.69 319.05 701.99 C 316.51 700.15 313.44 699.41 310.53 698.40 C 310.48 697.43 310.43 696.48 310.39 695.53 C 312.78 694.40 315.39 693.51 317.40 691.73 C 317.89 688.68 318.19 685.59 318.63 682.54 M 319.49 684.16 C 319.28 687.11 320.17 690.55 318.07 693.04 C 316.08 693.87 314.40 695.36 312.23 695.74 C 311.83 700.05 317.93 697.86 319.46 701.07 C 320.33 703.34 320.67 705.77 321.48 708.08 C 324.54 707.69 325.75 704.47 327.78 702.57 C 330.79 701.86 334.21 704.17 336.81 702.34 C 335.64 700.19 334.12 698.27 332.62 696.36 C 332.32 693.00 335.25 690.66 335.67 687.45 C 332.97 687.61 330.29 688.18 327.93 689.54 C 324.51 688.63 323.02 684.48 319.49 684.16 Z" />
<path fill="#943d4d" opacity="0.22" d=" M 460.58 699.98 C 462.03 694.92 463.22 689.79 464.63 684.72 C 464.88 684.99 465.37 685.53 465.62 685.79 C 464.84 692.35 459.76 699.33 463.74 705.72 C 462.20 704.17 459.43 702.59 460.58 699.98 Z" />
<path fill="#943d4d" opacity="0.22" d=" M 646.87 1099.52 C 647.13 1098.32 647.41 1097.15 647.73 1095.99 C 646.09 1099.55 651.15 1101.60 650.49 1105.30 C 648.58 1105.23 646.69 1105.17 644.79 1105.12 L 645.30 1103.59 C 646.54 1103.52 647.78 1103.46 649.03 1103.42 C 648.33 1102.10 647.61 1100.80 646.87 1099.52 Z" />
</g>
<g id="#fffffeff">
<path fill="#fffffe" opacity="1.00" d=" M 374.76 723.73 C 381.47 717.73 390.21 714.34 399.13 713.52 C 397.81 714.84 396.77 716.42 396.26 718.24 C 401.68 718.24 406.77 720.20 412.00 721.34 C 416.09 722.31 420.30 722.99 424.15 724.76 C 425.49 729.69 428.16 734.09 429.90 738.87 C 431.51 743.00 432.64 747.36 434.91 751.22 C 436.77 748.93 438.42 746.49 439.89 743.95 C 440.16 746.29 440.45 748.67 441.22 750.92 C 443.55 757.78 442.24 765.07 443.50 772.10 C 443.64 778.05 445.53 783.73 446.00 789.64 C 447.17 797.22 447.76 804.87 448.50 812.49 C 441.91 811.23 435.27 812.50 429.13 814.94 C 426.82 815.93 424.89 818.81 422.12 817.77 C 417.71 816.55 413.12 817.06 408.62 816.91 C 405.84 814.06 403.48 810.46 399.61 809.03 C 399.51 811.92 399.47 814.81 399.43 817.72 C 393.51 818.71 388.07 821.59 384.28 826.31 C 381.67 824.77 378.83 823.69 375.94 822.81 C 375.62 821.54 375.29 820.26 374.99 819.01 C 375.54 817.61 375.19 816.57 373.93 815.89 L 374.07 815.04 C 374.49 813.73 374.13 812.69 373.01 811.94 C 372.98 811.51 372.91 810.64 372.88 810.21 C 372.68 809.63 372.29 808.46 372.10 807.88 C 372.05 807.45 371.96 806.60 371.91 806.17 C 371.71 805.59 371.30 804.43 371.10 803.85 C 371.10 803.39 371.09 802.47 371.08 802.01 C 371.51 800.63 371.11 799.62 369.89 798.99 L 370.08 798.01 C 370.56 796.62 370.17 795.61 368.90 794.97 L 369.04 794.06 C 369.42 792.81 369.11 791.77 368.12 790.93 C 367.73 789.27 367.29 787.65 366.87 786.02 C 366.62 784.01 366.56 782.00 366.74 780.00 C 365.01 776.37 364.07 772.43 364.43 768.40 C 364.12 768.50 363.50 768.70 363.19 768.80 C 361.67 761.33 360.75 753.66 361.87 746.06 C 363.68 737.52 368.20 729.52 374.76 723.73 Z" />
<path fill="#fffffe" opacity="1.00" d=" M 613.70 715.34 C 623.66 718.56 632.56 725.20 637.66 734.44 C 643.48 744.20 644.11 756.35 641.02 767.12 C 636.36 787.45 631.43 807.73 626.58 828.02 C 622.28 827.74 618.16 826.40 613.90 825.87 C 609.48 825.68 607.20 821.22 603.40 819.61 C 595.59 816.92 587.37 815.84 579.23 814.62 C 576.07 814.05 573.07 815.51 570.06 816.19 C 564.75 817.39 560.90 821.68 557.69 825.80 C 555.39 829.68 555.77 834.58 553.34 838.45 C 552.28 833.97 553.51 829.46 554.03 825.02 C 556.31 808.00 558.40 790.96 560.48 773.91 C 561.84 775.42 562.51 777.32 563.04 779.26 C 563.45 779.34 564.28 779.50 564.69 779.57 C 573.40 768.16 581.98 756.65 590.93 745.42 C 599.64 745.17 608.31 746.07 617.00 746.36 C 623.33 745.97 629.54 747.52 635.86 747.50 C 635.41 745.15 634.10 743.17 632.48 741.49 C 625.88 733.01 619.94 724.07 613.70 715.34 Z" />
<path fill="#fffffe" opacity="1.00" d=" M 475.56 837.16 C 486.31 832.43 498.21 830.24 509.94 830.91 C 519.46 831.48 529.45 836.69 533.15 845.88 C 535.71 852.58 535.85 860.69 531.81 866.86 C 527.10 874.37 519.47 879.29 512.11 883.89 C 520.40 893.74 528.44 903.85 535.43 914.67 C 531.15 917.22 527.05 920.08 522.86 922.77 C 514.00 909.78 504.18 897.48 494.03 885.48 C 493.81 896.97 493.70 908.45 493.17 919.93 C 487.32 919.59 481.50 918.90 475.66 918.50 C 476.45 895.33 476.40 872.12 475.50 848.96 C 475.67 845.05 474.64 840.90 475.56 837.16 M 494.29 847.07 C 494.44 857.00 494.36 866.94 494.42 876.87 C 502.59 873.17 510.71 868.39 516.17 861.10 C 519.71 856.70 518.57 849.36 513.47 846.69 C 507.50 843.52 500.39 845.22 494.29 847.07 Z" />
<path fill="#fffffe" opacity="1.00" d=" M 438.12 834.44 C 444.52 834.67 450.93 834.91 457.32 835.26 C 459.12 854.87 462.95 874.79 459.28 894.41 C 457.43 903.28 453.74 912.74 445.76 917.82 C 437.51 922.69 426.37 923.18 418.24 917.78 C 411.77 913.44 406.57 906.97 404.35 899.46 C 403.28 896.01 403.12 892.38 402.75 888.82 C 401.27 872.44 400.72 855.98 401.03 839.54 C 407.35 839.58 413.67 839.42 419.99 839.49 C 419.43 856.69 419.86 873.90 421.25 891.05 C 421.54 896.59 423.61 902.39 428.10 905.89 C 431.19 908.35 436.03 907.27 438.25 904.15 C 441.40 899.74 441.79 894.12 442.18 888.89 C 443.22 870.64 440.27 852.50 438.12 834.44 Z" />
<path fill="#fffffe" opacity="1.00" d=" M 576.62 836.59 C 582.60 837.50 588.58 838.47 594.57 839.41 C 594.81 854.92 595.36 870.43 595.78 885.93 C 595.92 889.10 595.61 892.34 596.39 895.46 C 601.89 879.68 607.20 863.83 611.68 847.73 C 616.20 848.61 620.72 849.54 625.27 850.36 C 625.21 866.36 624.78 882.37 625.07 898.37 C 626.23 896.89 626.82 895.09 627.48 893.37 C 633.91 876.78 640.47 860.21 645.53 843.15 C 651.51 844.48 657.49 845.88 663.48 847.17 C 653.86 873.73 642.20 899.52 629.81 924.89 C 625.74 924.04 621.68 923.17 617.62 922.32 C 615.51 909.93 613.85 897.48 612.30 885.01 C 607.30 897.48 603.11 910.30 597.40 922.49 C 593.34 921.70 589.26 921.05 585.21 920.30 C 581.90 892.44 578.38 864.60 576.62 836.59 Z" />
<path fill="#fffffe" opacity="1.00" d=" M 354.55 842.72 C 362.60 841.09 371.36 842.98 377.75 848.23 C 385.16 853.90 388.84 862.99 390.67 871.88 C 393.37 885.36 393.38 899.94 387.52 912.63 C 384.26 919.49 379.50 926.25 372.28 929.31 C 364.10 932.65 354.27 931.11 347.29 925.74 C 338.53 919.58 334.37 909.06 332.06 898.99 C 329.13 885.84 328.57 871.28 334.97 859.02 C 338.85 851.21 345.71 844.34 354.55 842.72 M 356.21 857.38 C 352.47 859.18 350.69 863.29 349.50 867.03 C 346.57 876.78 347.73 887.19 349.83 896.99 C 351.32 903.31 353.37 910.08 358.51 914.45 C 361.22 916.95 365.97 917.56 368.68 914.73 C 372.36 910.74 373.53 905.14 374.36 899.94 C 375.57 888.78 374.32 877.21 370.37 866.69 C 368.21 861.25 362.75 854.62 356.21 857.38 Z" />
<path fill="#fffffe" opacity="1.00" d=" M 265.69 862.87 C 282.13 855.80 299.63 851.65 317.05 847.79 C 318.66 852.05 320.40 856.26 322.00 860.54 C 316.45 861.84 310.94 863.25 305.45 864.75 C 308.66 887.69 313.68 910.32 318.54 932.96 C 318.73 934.14 318.87 935.35 318.97 936.57 C 313.63 936.93 308.34 937.80 303.03 938.36 C 296.65 915.93 291.50 893.15 287.81 870.12 C 282.50 872.01 277.18 873.89 271.87 875.78 C 269.81 871.48 267.77 867.16 265.69 862.87 Z" />
<path fill="#fffffe" opacity="1.00" d=" M 676.17 847.47 C 682.37 848.75 688.40 850.72 694.59 852.08 C 687.83 880.07 682.15 908.36 678.90 936.99 C 673.32 935.51 667.76 933.90 662.16 932.52 C 664.79 903.87 669.86 875.52 676.17 847.47 Z" />
<path fill="#fffffe" opacity="1.00" d=" M 708.78 859.40 C 727.11 860.19 745.07 864.31 762.87 868.48 C 762.94 872.15 762.77 875.83 762.57 879.51 C 746.35 895.05 730.19 910.65 713.79 926.01 C 724.33 927.76 734.65 930.70 744.46 934.97 C 742.56 939.44 740.58 943.87 738.72 948.35 C 733.47 946.47 728.28 944.40 722.94 942.81 C 713.08 939.68 702.67 939.04 692.41 938.49 C 692.72 934.11 692.44 929.65 693.29 925.34 C 709.05 909.56 725.66 894.59 741.08 878.45 C 730.28 876.48 719.41 874.85 708.48 873.85 C 708.51 869.03 708.66 864.21 708.78 859.40 Z" />
<path fill="#fffffe" opacity="1.00" d=" M 220.47 875.36 C 220.97 874.19 221.02 872.73 221.97 871.85 C 227.27 873.51 232.37 875.77 237.59 877.68 C 232.23 890.73 227.86 904.20 224.53 917.91 C 234.33 928.73 243.68 939.97 253.68 950.62 C 248.38 952.84 242.29 952.78 236.71 954.28 C 230.28 947.58 224.73 940.10 218.72 933.04 C 216.86 943.79 215.12 954.60 214.64 965.52 C 209.51 964.46 204.40 963.30 199.24 962.40 C 200.24 948.82 202.63 935.39 205.50 922.10 C 195.60 911.88 186.27 901.03 178.51 889.08 C 184.92 887.67 191.32 885.47 197.77 884.75 C 201.98 892.49 206.67 899.98 211.85 907.11 C 214.24 896.40 217.08 885.80 220.47 875.36 Z" />
<path fill="#fffffe" opacity="1.00" d=" M 789.03 874.92 C 797.14 878.14 805.41 880.99 813.37 884.57 C 810.79 912.14 807.92 939.68 804.65 967.17 C 798.64 965.18 792.93 962.38 787.04 960.08 C 787.78 954.48 788.48 948.88 789.22 943.29 C 783.03 941.62 776.80 940.08 770.64 938.33 C 766.65 944.99 763.27 952.00 759.39 958.72 C 753.76 956.52 748.02 954.61 742.40 952.41 C 757.40 926.26 772.80 900.33 789.03 874.92 M 776.85 926.70 C 781.59 927.86 786.27 929.25 791.02 930.40 C 792.55 918.28 793.87 906.13 795.50 894.03 C 788.97 904.73 782.97 915.76 776.85 926.70 Z" />
<path fill="#fffffe" opacity="1.00" d=" M 546.43 883.24 L 546.78 883.37 C 549.69 884.68 553.18 885.20 555.64 887.23 C 558.05 895.18 558.59 903.65 561.67 911.41 C 562.01 917.46 563.61 923.28 565.23 929.09 C 567.78 933.38 571.26 937.03 575.42 939.81 C 582.38 942.37 589.74 943.35 596.93 944.96 C 597.50 944.70 598.62 944.19 599.18 943.93 C 599.00 944.58 598.63 945.86 598.45 946.50 C 580.52 942.43 562.30 939.65 544.56 934.85 C 548.77 931.57 553.07 928.07 555.29 923.08 C 556.09 920.21 556.78 917.31 557.66 914.47 C 556.58 910.80 555.97 906.97 554.44 903.47 C 551.44 899.09 548.24 894.86 545.17 890.54 C 545.47 888.08 545.85 885.64 546.43 883.24 Z" />
<path fill="#fffffe" opacity="1.00" d=" M 842.38 895.42 C 853.98 895.00 865.69 896.98 876.39 901.50 C 883.03 904.32 888.95 909.24 892.17 915.79 C 896.08 923.55 894.53 933.47 889.26 940.22 C 882.13 948.20 871.00 950.58 860.88 952.22 C 864.92 964.55 869.12 976.87 872.00 989.56 C 866.98 990.46 862.03 991.71 857.00 992.52 C 853.39 977.36 848.42 962.57 843.30 947.88 C 840.69 951.76 839.64 956.48 837.65 960.71 C 835.11 966.88 832.51 973.04 829.91 979.19 C 824.56 976.72 819.32 974.02 813.96 971.60 C 820.53 954.76 827.58 938.09 833.47 920.98 C 836.48 912.47 839.43 903.94 842.38 895.42 M 857.08 911.46 C 853.56 920.78 850.02 930.09 846.48 939.41 C 855.68 938.85 865.33 937.41 873.20 932.29 C 877.93 929.31 879.12 921.98 875.16 917.90 C 870.57 913.01 863.41 912.06 857.08 911.46 Z" />
<path fill="#fffffe" opacity="1.00" d=" M 135.95 900.15 C 144.11 895.22 155.07 894.89 163.33 899.70 C 172.07 905.17 175.61 915.66 176.79 925.41 C 171.68 926.76 166.55 928.08 161.49 929.66 C 159.58 923.21 157.65 916.07 151.99 911.83 C 149.60 909.93 145.61 910.34 144.04 913.10 C 141.73 916.97 141.63 921.65 141.57 926.04 C 141.44 937.15 145.15 947.94 150.34 957.64 C 152.61 961.56 155.12 965.67 159.10 968.06 C 163.23 970.73 169.03 967.62 170.26 963.16 C 171.68 958.44 170.67 953.51 169.99 948.76 C 166.68 949.69 163.69 952.26 160.43 952.70 C 158.22 949.51 155.93 946.36 154.03 943.00 C 154.79 941.98 156.21 941.77 157.28 941.18 C 165.55 937.53 173.70 933.60 181.93 929.87 C 184.45 935.33 187.38 940.87 187.55 947.03 C 188.06 957.35 185.29 968.40 178.00 976.01 C 169.57 983.63 156.01 984.37 146.38 978.55 C 137.48 973.35 132.08 963.98 128.48 954.62 C 124.14 943.04 121.68 930.21 124.50 917.97 C 126.13 910.99 129.68 904.00 135.95 900.15 Z" />
<path fill="#fffffe" opacity="1.00" d=" M 82.23 920.49 C 87.74 918.05 93.58 916.43 99.21 914.32 C 110.20 940.67 122.46 966.51 131.88 993.49 C 127.25 995.05 122.59 996.56 117.97 998.15 C 102.72 985.57 87.40 972.92 70.51 962.56 C 78.55 979.47 86.85 996.26 94.83 1013.20 C 89.93 1014.91 85.13 1016.91 80.17 1018.47 C 66.97 994.45 56.43 969.09 46.53 943.56 C 52.33 940.96 58.37 938.92 64.26 936.55 C 78.18 948.39 91.61 961.01 106.93 971.03 C 98.83 954.12 90.94 937.10 82.23 920.49 Z" />
<path fill="#fffffe" opacity="1.00" d=" M 909.18 921.72 C 918.36 922.69 927.49 925.00 935.77 929.14 C 942.68 932.61 948.69 938.38 951.29 945.80 C 954.79 955.86 953.34 967.17 948.60 976.60 C 942.34 989.29 931.80 1000.62 918.05 1005.02 C 909.28 1008.11 899.24 1007.62 891.00 1003.21 C 886.17 1000.57 881.39 997.83 876.66 995.04 C 889.12 971.36 900.34 947.00 909.18 921.72 M 922.45 940.06 C 915.39 957.03 908.01 973.90 899.28 990.10 C 902.73 993.84 908.38 992.37 912.35 990.33 C 920.96 986.07 928.14 978.84 931.88 969.94 C 935.06 962.74 936.84 954.07 933.37 946.66 C 931.44 942.43 926.73 940.70 922.45 940.06 Z" />
<path fill="#fffffe" opacity="1.00" d=" M 402.33 933.15 C 406.29 936.20 410.37 939.36 415.33 940.58 C 421.84 942.14 428.31 944.98 435.15 943.85 C 440.18 942.92 445.07 941.31 450.01 940.01 C 454.24 939.01 457.54 936.09 461.06 933.74 C 461.03 934.64 460.96 936.44 460.93 937.34 C 460.98 937.74 461.10 938.55 461.15 938.95 L 459.72 938.86 C 458.71 938.70 457.82 938.99 457.07 939.73 C 456.54 939.81 455.47 939.97 454.94 940.06 C 454.44 940.21 453.43 940.53 452.93 940.69 C 444.91 942.39 436.98 944.64 428.91 946.05 C 428.43 946.25 427.46 946.65 426.98 946.85 C 426.40 946.85 425.23 946.85 424.64 946.85 C 423.60 946.66 422.76 947.00 422.11 947.86 L 420.68 947.90 C 419.46 947.64 418.63 948.02 418.18 949.04 L 416.73 948.88 C 415.71 948.68 414.82 948.95 414.06 949.69 C 413.52 949.76 412.46 949.90 411.92 949.97 C 411.43 950.15 410.45 950.51 409.96 950.69 C 409.17 950.85 407.58 951.16 406.78 951.31 C 405.28 945.26 404.08 939.13 402.33 933.15 Z" />
<path fill="#fffffe" opacity="1.00" d=" M 468.51 961.39 C 474.51 961.23 480.52 960.83 486.54 961.07 C 486.45 977.75 487.00 994.42 486.70 1011.11 C 488.19 1012.62 489.58 1014.64 491.89 1014.89 C 495.96 1015.85 500.40 1012.31 499.86 1008.02 C 499.94 992.29 500.31 976.56 500.24 960.82 C 507.08 961.09 513.92 960.95 520.76 961.02 C 521.00 973.72 520.09 986.49 521.52 999.14 C 520.13 997.06 519.15 994.74 518.42 992.36 C 516.10 992.39 513.79 992.40 511.48 992.40 C 511.41 994.82 510.53 997.06 509.52 999.23 C 511.39 1001.13 514.43 1001.82 516.35 1003.88 C 516.81 1002.74 517.28 1001.61 517.75 1000.50 C 519.08 1000.16 520.41 999.83 521.76 999.53 C 524.40 1004.47 532.83 1003.55 534.13 998.06 C 534.43 985.93 534.46 973.79 534.58 961.65 C 542.57 962.08 550.60 962.14 558.55 963.11 C 558.45 978.07 558.53 993.03 558.50 1008.00 C 558.37 1010.72 560.06 1013.46 562.58 1014.55 C 566.11 1016.05 571.17 1014.08 571.64 1009.99 C 572.28 1003.42 571.94 996.81 571.97 990.23 C 573.87 988.11 575.88 985.99 578.68 985.10 C 577.06 982.87 575.99 980.29 576.13 977.50 C 574.76 977.84 573.37 978.15 571.99 978.44 C 571.96 973.60 571.93 968.77 572.00 963.93 C 579.34 964.31 586.64 965.22 593.95 965.93 C 594.40 975.96 594.26 986.01 594.23 996.05 C 593.67 1001.28 600.57 1004.69 604.69 1001.75 C 607.44 1000.18 607.63 996.72 607.72 993.91 C 607.80 985.12 607.74 976.33 607.67 967.54 C 614.43 968.02 621.13 969.14 627.84 970.05 C 628.23 981.03 627.81 992.02 628.22 1003.00 C 628.43 1006.31 627.38 1010.33 630.21 1012.84 C 633.72 1016.79 641.38 1014.52 641.70 1009.10 C 642.38 996.80 641.64 984.47 642.31 972.17 C 649.33 973.29 656.33 974.48 663.35 975.65 C 664.13 982.08 663.48 988.57 663.91 995.03 C 664.12 997.16 663.80 999.77 665.64 1001.32 C 669.00 1004.97 676.39 1003.24 676.91 998.01 C 677.67 991.50 677.03 984.92 677.28 978.39 C 688.45 980.50 699.57 982.90 710.62 985.61 C 708.13 1002.60 705.49 1019.57 702.91 1036.55 C 681.29 1033.38 659.73 1029.63 637.98 1027.35 C 608.42 1023.94 578.72 1021.84 548.99 1020.81 C 517.75 1019.88 486.48 1020.55 455.26 1021.12 C 453.54 1020.55 451.76 1020.64 450.08 1021.25 C 445.45 1022.45 440.64 1022.10 435.91 1022.42 C 424.78 1023.10 413.65 1023.86 402.55 1024.85 C 395.48 1018.78 387.89 1013.37 380.79 1007.35 C 379.54 1006.30 378.02 1005.69 376.54 1005.08 C 376.45 1012.46 376.51 1019.84 376.42 1027.23 C 351.27 1029.66 326.26 1033.31 301.22 1036.68 C 296.06 1019.82 290.59 1003.06 285.62 986.14 C 296.68 983.38 307.81 980.88 318.95 978.50 C 319.67 984.96 318.90 991.47 319.45 997.93 C 320.85 1003.94 330.59 1004.55 332.29 998.51 C 333.35 990.99 332.33 983.35 332.91 975.79 C 339.40 974.57 345.91 973.49 352.44 972.59 C 352.97 984.04 352.65 995.50 352.77 1006.96 C 352.80 1009.40 352.93 1012.36 355.31 1013.76 C 358.99 1016.80 365.88 1014.24 365.84 1009.22 C 366.80 996.22 365.68 983.17 366.64 970.19 C 373.54 969.42 380.40 968.28 387.31 967.53 C 387.05 975.36 387.74 983.18 387.49 991.01 C 387.63 994.24 386.69 998.12 389.30 1000.67 C 392.45 1004.38 399.82 1003.00 400.61 997.96 C 401.35 987.32 400.65 976.64 401.21 966.00 C 407.65 965.28 414.10 964.62 420.56 964.09 C 420.54 978.72 420.29 993.36 420.76 1007.99 C 420.61 1010.42 421.81 1012.83 423.94 1014.08 C 427.46 1016.47 433.24 1014.39 433.83 1010.00 C 434.50 994.40 434.14 978.78 434.29 963.17 C 441.09 962.55 447.93 962.23 454.76 961.96 C 454.97 973.95 454.24 985.99 455.20 997.95 C 456.44 1004.62 467.88 1003.84 468.23 997.07 C 468.12 985.17 468.53 973.28 468.51 961.39 M 653.37 978.39 C 653.41 979.62 653.45 980.86 653.49 982.11 C 652.84 983.11 652.24 984.15 651.69 985.22 C 652.15 986.64 653.76 986.41 654.92 986.79 C 655.75 987.63 656.58 988.51 657.40 989.39 C 657.87 989.45 658.82 989.57 659.29 989.63 C 659.42 988.93 659.68 987.54 659.81 986.84 C 660.79 986.45 661.78 986.07 662.78 985.71 C 662.69 982.81 661.03 980.20 661.35 977.25 C 658.83 978.35 656.10 978.78 653.37 978.39 Z" />
<path fill="#fffffe" opacity="1.00" d=" M 446.62 1043.53 C 456.19 1042.83 465.78 1042.56 475.37 1042.23 C 477.32 1059.46 480.15 1076.65 480.51 1094.01 C 480.11 1095.97 481.12 1099.70 478.42 1100.16 C 472.30 1101.31 466.09 1102.02 459.95 1103.04 C 454.30 1103.82 448.75 1105.26 443.05 1105.52 C 442.59 1102.87 442.08 1100.21 441.37 1097.62 C 442.81 1095.93 445.17 1096.54 447.11 1096.60 C 452.98 1097.33 458.91 1097.64 464.83 1097.35 C 461.32 1089.54 454.94 1083.50 450.73 1076.09 C 447.39 1070.99 443.50 1066.27 440.33 1061.05 C 442.33 1055.17 444.86 1049.48 446.62 1043.53 Z" />
<path fill="#fffffe" opacity="1.00" d=" M 528.85 1042.00 C 544.14 1042.02 559.43 1042.88 574.71 1043.64 C 572.95 1054.47 569.75 1065.00 567.60 1075.76 C 562.56 1079.04 557.59 1082.41 552.52 1085.64 C 552.47 1086.08 552.36 1086.97 552.31 1087.42 C 556.17 1088.65 560.00 1089.98 563.87 1091.19 C 562.72 1096.39 561.88 1101.72 559.76 1106.65 C 547.14 1105.10 534.52 1103.11 522.24 1099.78 C 522.04 1093.08 523.54 1086.53 524.23 1079.91 C 525.87 1067.28 527.24 1054.63 528.85 1042.00 Z" />
</g>
</svg>
